<svg xmlns="http://www.w3.org/2000/svg" x="0px" y="0px" width="512" height="512" viewBox="0 0 64 64">
<path d="M 40.001953 4.1171875 C 39.817274 4.1042777 39.621369 4.1144455 39.425781 4.125 A 1.0001 1.0001 0 0 0 39.326172 4.1210938 A 1.0001 1.0001 0 0 0 39.255859 4.125 L 39.238281 4.1269531 L 9.1953125 6.3300781 A 1.0001 1.0001 0 0 0 9.1835938 6.3320312 C 7.7667415 6.4541467 6.633179 7.030145 5.9375 7.9179688 C 5.241821 8.8057925 5 9.9089419 5 11.001953 L 5 43.757812 C 5 45.467652 5.6638999 47.004283 6.9941406 48.769531 A 1.0001 1.0001 0 0 0 7.0019531 48.779297 L 14.068359 57.914062 A 1.0001 1.0001 0 0 0 14.074219 57.921875 C 14.724027 58.745339 15.454412 59.350654 16.337891 59.671875 C 17.221369 59.993096 18.176654 60.035559 19.339844 59.980469 A 1.0001 1.0001 0 0 0 19.351562 59.980469 L 54.263672 57.878906 A 1.0001 1.0001 0 0 0 54.273438 57.878906 C 55.896287 57.764048 57.151805 57.301771 57.958984 56.388672 C 58.766091 55.475552 59 54.272436 59 52.996094 L 59 18.011719 A 1.0001 1.0001 0 0 0 58.992188 17.880859 C 58.970618 16.770224 58.690184 15.840683 58.175781 15.154297 C 57.640532 14.440096 56.832951 14.005568 56.001953 14.003906 C 55.460176 14.002806 54.898427 14.156457 54.453125 14.492188 C 54.007823 14.827917 53.706144 15.299361 53.503906 15.822266 C 53.099432 16.868075 53 18.185225 53 19.966797 L 53 50.558594 C 53 51.178096 52.91842 51.625106 52.814453 51.798828 C 52.710482 51.97255 52.627863 52.09765 51.925781 52.136719 A 1.0001 1.0001 0 0 0 51.923828 52.136719 L 20.566406 53.990234 C 19.779578 54.034424 19.394762 53.896664 19.259766 53.787109 C 19.124817 53.677553 19 53.485193 19 52.824219 L 19 22.146484 C 19 21.578132 19.104547 21.317327 19.152344 21.253906 C 19.199984 21.190696 19.25495 21.120081 19.697266 21.082031 L 19.699219 21.082031 L 47.380859 19.595703 A 1.0004637 1.0004637 0 0 0 47.439453 19.591797 C 48.569711 19.464399 48.922692 20.033944 48.994141 20.666016 C 49.065421 21.296588 48.859312 21.945035 47.630859 22.103516 L 41.876953 22.423828 A 1.0001 1.0001 0 0 0 41.837891 22.427734 C 41.07905 22.500474 40.349309 22.801377 39.783203 23.347656 C 39.217097 23.893935 38.846588 24.771908 39.017578 25.683594 A 1.0001 1.0001 0 0 0 39.835938 26.486328 L 42.001953 26.847656 L 42.015625 37.060547 L 32.78125 23.386719 A 1.0001 1.0001 0 0 0 31.888672 22.949219 L 23.859375 23.474609 A 1.0001 1.0001 0 0 0 23.853516 23.474609 C 22.78152 23.549319 21.929602 24.156825 21.466797 24.884766 C 21.003992 25.612706 20.84436 26.438207 21.025391 27.224609 A 1.0001 1.0001 0 0 0 22 28 L 24 28 L 24 46.439453 L 22.318359 47.464844 L 22.572266 47.355469 C 21.803146 47.568269 21.350861 48.188454 21.152344 48.744141 C 20.953826 49.299827 20.86437 49.826008 21.191406 50.458984 A 1.0001 1.0001 0 0 0 22.136719 50.998047 L 29.621094 50.578125 C 31.178568 50.562726 32.236825 49.937093 32.753906 49.216797 C 33.27746 48.487486 33.279297 47.689453 33.279297 47.689453 A 1.0001 1.0001 0 0 0 32.560547 46.728516 L 30.033203 45.990234 L 30.033203 34.496094 L 38.707031 48.019531 A 1.0001 1.0001 0 0 0 38.777344 48.115234 C 39.427973 48.90339 39.891686 49.500415 40.5625 49.951172 C 41.233314 50.401929 42.052236 50.580078 43.021484 50.580078 C 44.317661 50.580078 45.908248 50.194953 47.460938 49.386719 A 1.0001 1.0001 0 0 0 48 48.5 L 48 27 A 1.0001 1.0001 0 1 0 46 27 L 46 47.761719 C 44.908889 48.230542 43.759684 48.580078 43.021484 48.580078 C 42.253733 48.580078 41.985872 48.496758 41.679688 48.291016 C 41.380522 48.089991 40.974058 47.629883 40.349609 46.875 L 29.875 30.546875 A 1.0001 1.0001 0 0 0 28.033203 31.085938 L 28.033203 46.738281 A 1.0001 1.0001 0 0 0 28.751953 47.699219 L 30.822266 48.304688 C 30.603804 48.451425 30.276802 48.580078 29.564453 48.580078 A 1.0001 1.0001 0 0 0 29.509766 48.582031 L 23.800781 48.902344 L 25.521484 47.853516 A 1.0001 1.0001 0 0 0 26 47 L 26 27 A 1.0001 1.0001 0 0 0 25 26 L 23.144531 26 C 23.152931 25.98508 23.145141 25.971381 23.154297 25.957031 C 23.326964 25.685446 23.54531 25.503212 23.990234 25.470703 L 31.445312 24.982422 L 42.191406 40.896484 A 1.0001 1.0001 0 0 0 44.019531 40.335938 L 44 25.998047 A 1.0001 1.0001 0 0 0 43.164062 25.013672 L 41.347656 24.710938 C 41.539275 24.58045 41.767545 24.445568 42.025391 24.419922 L 47.753906 24.099609 A 1.0001 1.0001 0 0 0 47.861328 24.091797 A 1.0001 1.0001 0 0 0 47.875 24.089844 A 1.0001 1.0001 0 0 0 48.265625 23.962891 C 50.10793 23.525851 51.150869 21.931577 50.982422 20.441406 C 50.807013 18.889648 49.358732 17.478335 47.400391 17.601562 A 1.0001 1.0001 0 0 0 47.34375 17.597656 A 1.0001 1.0001 0 0 0 47.273438 17.599609 L 19.560547 19.087891 A 1.0001 1.0001 0 0 0 19.529297 19.089844 C 18.764603 19.154884 18.011641 19.444452 17.554688 20.050781 C 17.097731 20.657016 17 21.376837 17 22.146484 L 17 52.824219 C 17 53.811245 17.277996 54.7539 18 55.339844 C 18.722004 55.925788 19.648562 56.046087 20.677734 55.988281 A 1.0001 1.0001 0 0 0 20.681641 55.986328 L 52.037109 54.132812 C 53.150028 54.070883 54.078018 53.578247 54.529297 52.824219 C 54.980583 52.070238 55 51.279091 55 50.558594 L 55 19.966797 C 55 18.281369 55.150568 17.115112 55.371094 16.544922 C 55.481356 16.259827 55.585927 16.14091 55.65625 16.087891 C 55.72657 16.034871 55.789824 16.003486 55.998047 16.003906 C 56.167049 16.004244 56.359468 16.066966 56.574219 16.353516 C 56.78897 16.64006 57 17.171974 57 18.011719 L 57 52.996094 C 57 54.028752 56.812055 54.665052 56.458984 55.064453 C 56.105914 55.463854 55.462964 55.78867 54.132812 55.882812 L 19.232422 57.984375 L 19.244141 57.982422 C 18.19033 58.032332 17.509756 57.970502 17.021484 57.792969 C 16.533213 57.61544 16.154723 57.328176 15.644531 56.681641 L 8.5917969 47.566406 C 7.3900376 45.971655 7 44.989973 7 43.757812 L 7 11.001953 C 7 10.206964 7.1791477 9.5767699 7.5117188 9.1523438 C 7.8434441 8.7289966 8.3465915 8.4140003 9.3496094 8.3261719 C 9.3521694 8.325948 9.3529088 8.3244387 9.3554688 8.3242188 L 39.349609 6.1230469 A 1.0004048 1.0004048 0 0 0 39.423828 6.1191406 C 40.810043 5.9894433 41.128781 6.5214992 41.21875 6.9863281 C 41.3081 7.4479419 41.16045 7.9104046 40.423828 8.0410156 L 11.960938 10.109375 A 1.0001 1.0001 0 0 0 11.935547 10.111328 C 11.257658 10.177748 10.644735 10.347138 10.240234 10.951172 C 10.037984 11.253189 9.9566542 11.673788 10.029297 12.023438 C 10.101937 12.373086 10.285513 12.642437 10.492188 12.849609 A 1.0001 1.0001 0 0 0 10.580078 12.927734 L 14.632812 16.136719 C 15.52246 16.856985 16.324382 17.30491 17.269531 17.451172 C 18.213088 17.597187 19.187695 17.498411 20.740234 17.394531 L 50.222656 15.630859 L 50.162109 15.632812 C 50.483945 15.632812 51.001631 15.540342 51.296875 15.048828 C 51.592119 14.557312 51.43656 14.118181 51.330078 13.888672 C 51.223605 13.659063 51.105299 13.513713 50.980469 13.380859 C 50.855638 13.248006 50.763283 13.14308 50.501953 13.013672 L 50.642578 13.097656 L 45.748047 9.5703125 A 1.0003746 1.0003746 0 1 0 44.578125 11.193359 L 48.130859 13.751953 L 20.621094 15.398438 A 1.0001 1.0001 0 0 0 20.613281 15.398438 C 19.043404 15.503364 18.141523 15.562099 17.576172 15.474609 C 17.010821 15.387119 16.667931 15.209765 15.892578 14.582031 A 1.0001 1.0001 0 0 0 15.882812 14.576172 L 12.705078 12.060547 L 40.576172 10.035156 A 1.0001 1.0001 0 0 0 40.578125 10.035156 L 40.634766 10.03125 A 1.0001 1.0001 0 0 0 40.654297 10.029297 A 1.0001 1.0001 0 0 0 40.677734 10.027344 A 1.0001 1.0001 0 0 0 40.6875 10.025391 A 1.0001 1.0001 0 0 0 41.154297 9.859375 C 42.615411 9.3845133 43.440465 7.9446527 43.181641 6.6074219 C 42.933331 5.3245222 41.715386 4.2369634 40.001953 4.1171875 z"></path>
</svg>